<?xml version="1.0" standalone="no"?>
<!DOCTYPE svg PUBLIC "-//W3C//DTD SVG 20010904//EN"
 "http://www.w3.org/TR/2001/REC-SVG-20010904/DTD/svg10.dtd">
<svg version="1.0" xmlns="http://www.w3.org/2000/svg"
 width="400.000000pt" height="400.000000pt" viewBox="0 0 400.000000 400.000000"
 preserveAspectRatio="xMidYMid meet">
<metadata>
Created by potrace 1.14, written by Peter Selinger 2001-2017
</metadata>
<g transform="translate(0.000000,400.000000) scale(0.100000,-0.100000)"
fill="#000000" stroke="none">
<path d="M232 3993 c-7 -3 -18 -15 -23 -27 -17 -37 -35 -66 -60 -94 -14 -15
-31 -42 -38 -59 -7 -18 -16 -33 -20 -33 -4 0 -15 -16 -25 -35 -11 -19 -23 -35
-27 -35 -5 0 -15 -13 -24 -30 -13 -26 -15 -238 -15 -1855 l0 -1825 178 0 178
0 -4 38 c-3 37 14 82 33 89 6 2 19 -24 29 -58 9 -33 23 -62 30 -65 7 -3 39 -4
70 -2 l57 3 -28 43 c-15 23 -33 42 -40 42 -7 0 -13 5 -13 11 0 5 -4 8 -9 5 -5
-3 -11 1 -14 8 -3 8 -21 16 -39 18 -42 4 -46 24 -13 69 13 18 31 48 39 64 16
33 41 58 68 68 23 8 32 -8 13 -23 -35 -29 -6 -90 114 -232 63 -77 65 -78 110
-78 41 0 52 6 99 50 30 28 57 63 63 82 5 18 12 94 14 168 3 74 10 223 15 330
11 208 13 186 -36 368 -2 7 -20 12 -43 12 -33 0 -44 6 -70 37 -55 67 -88 195
-96 369 -2 38 -6 102 -10 141 -6 59 -4 87 13 150 12 43 25 101 30 128 l9 50
13 -30 c7 -16 12 -46 11 -65 l-2 -35 30 29 c30 29 31 29 51 11 11 -10 29 -37
40 -60 l20 -42 -20 -44 c-11 -24 -20 -52 -20 -63 0 -17 2 -17 24 -3 13 9 33
13 44 11 27 -8 29 -1 42 100 10 79 24 152 50 246 5 19 18 69 29 110 11 41 36
131 55 200 33 113 37 137 37 246 0 102 2 124 17 137 30 27 174 56 274 56 60
-1 125 6 185 20 75 17 127 21 275 22 175 0 245 5 368 28 30 5 114 12 185 15
72 2 182 9 245 15 72 6 119 6 124 0 17 -16 48 -10 81 15 l32 25 39 -20 c34
-16 46 -31 81 -106 23 -49 53 -126 68 -173 25 -79 26 -94 22 -212 -3 -70 -9
-133 -14 -140 -4 -7 -8 -188 -9 -403 0 -214 -3 -399 -6 -410 -24 -83 -16 -142
16 -116 9 8 16 22 16 32 0 11 11 37 25 59 19 29 32 40 50 40 18 0 29 8 37 27
l11 28 7 -25 c21 -67 -6 -237 -69 -435 -11 -33 -21 -88 -24 -121 -4 -45 -11
-68 -28 -89 -25 -29 -68 -54 -101 -60 -12 -3 -22 -6 -23 -7 -1 -2 -13 -23 -27
-48 -33 -56 -118 -156 -130 -152 -5 1 -28 -10 -51 -25 -95 -64 -167 -79 -152
-33 5 16 2 20 -19 20 -14 0 -26 -4 -26 -10 0 -5 -12 -10 -26 -10 -19 0 -39
-13 -68 -46 -47 -53 -71 -67 -144 -84 -46 -10 -56 -10 -78 5 -21 14 -31 14
-61 4 -36 -12 -73 -11 -376 10 -106 7 -147 14 -181 31 -25 11 -60 24 -80 27
-21 3 -33 10 -29 16 4 6 0 8 -9 5 -8 -4 -19 2 -26 12 -7 12 -18 16 -32 13 -16
-4 -23 0 -27 15 -5 20 -56 46 -67 35 -3 -4 -17 0 -31 7 -14 7 -28 11 -31 7 -3
-3 -32 8 -63 26 -61 34 -64 36 -111 78 -18 16 -40 29 -50 29 -10 0 -23 7 -30
15 -9 11 -17 12 -31 4 -18 -9 -18 -13 18 -79 20 -38 54 -89 75 -112 22 -24 52
-63 68 -87 16 -24 40 -51 54 -60 94 -63 126 -87 126 -97 0 -6 11 -19 24 -30
14 -10 23 -21 21 -24 -2 -4 6 -16 19 -28 13 -11 28 -27 33 -35 4 -9 23 -18 41
-22 18 -3 52 -12 75 -21 23 -9 63 -19 89 -24 26 -5 55 -13 66 -19 12 -6 159
-10 398 -11 l379 0 54 87 c30 49 58 90 61 93 4 3 12 15 19 27 6 13 16 23 22
23 6 0 8 -4 5 -8 -2 -4 -7 -35 -11 -67 -8 -76 -14 -115 -21 -137 -5 -17 31
-18 650 -18 l656 0 0 2000 0 2000 -1877 -1 c-1033 0 -1884 -3 -1891 -6z m571
-2048 c1 -5 -11 -12 -27 -13 -27 -3 -28 -2 -16 13 14 17 40 17 43 0z m2863
-1110 c41 -26 52 -39 66 -81 15 -46 15 -55 2 -102 -12 -42 -24 -58 -63 -86
l-47 -35 -146 -7 c-122 -5 -153 -4 -196 10 -116 39 -148 195 -58 286 19 19 44
38 57 42 13 4 94 6 180 5 154 -2 156 -2 205 -32z m-3006 -505 c0 -5 -12 -10
-26 -10 -14 0 -23 4 -19 10 3 6 15 10 26 10 10 0 19 -4 19 -10z"/>
<path d="M1605 2227 c-96 -13 -165 -28 -165 -36 0 -4 -12 -14 -27 -22 -31 -15
-63 -44 -63 -57 0 -13 73 -1 91 15 34 29 93 26 201 -12 55 -19 103 -37 106
-40 3 -3 -3 -13 -12 -24 -15 -16 -35 -20 -145 -23 -136 -3 -173 -15 -190 -61
-8 -20 -4 -23 28 -29 20 -3 58 -2 86 3 36 7 61 6 95 -5 98 -31 148 -26 162 15
7 20 47 -8 42 -28 -4 -15 3 -18 46 -20 46 -2 52 0 60 23 8 20 14 24 33 18 12
-3 30 -13 39 -21 15 -14 18 -13 24 13 4 15 3 45 -3 65 -6 25 -7 41 0 48 6 6 4
18 -7 32 -9 13 -16 34 -16 46 0 16 -8 27 -25 33 -14 5 -25 16 -25 24 0 9 -10
21 -22 27 -29 16 -236 26 -313 16z"/>
<path d="M2535 2112 c-16 -10 -36 -30 -43 -43 -7 -14 -33 -41 -57 -60 -31 -24
-44 -42 -45 -59 0 -14 -7 -36 -16 -48 -22 -31 -11 -76 16 -69 11 3 20 1 20 -3
0 -9 14 -14 69 -25 22 -5 31 -4 27 3 -11 19 17 26 30 8 15 -21 110 -45 180
-46 35 0 56 -6 71 -19 23 -22 103 -64 109 -58 2 2 6 17 9 33 11 57 -49 112
-130 118 -5 1 -23 6 -40 13 -16 6 -51 17 -77 24 -46 13 -64 29 -33 29 8 0 15
5 15 10 0 6 -4 10 -10 10 -5 0 -10 5 -10 10 0 6 44 10 111 10 133 0 145 -5
212 -96 27 -36 53 -62 59 -58 7 4 9 31 5 73 -5 59 -8 68 -38 93 -18 16 -37 28
-42 28 -17 0 -97 63 -102 81 -4 12 -21 19 -58 24 -29 4 -74 13 -101 21 -66 19
-95 18 -131 -4z"/>
<path d="M1567 1839 c7 -7 15 -10 18 -7 3 3 -2 9 -12 12 -14 6 -15 5 -6 -5z"/>
<path d="M1610 1830 c20 -13 123 -13 115 0 -3 6 -34 10 -68 10 -44 0 -58 -3
-47 -10z"/>
<path d="M2566 1702 c13 -12 114 -52 130 -52 28 0 13 16 -35 38 -47 21 -115
31 -95 14z"/>
<path d="M1908 1429 c-25 -14 -24 -52 1 -44 10 3 38 -1 62 -10 75 -25 98 -20
83 20 -14 37 -105 58 -146 34z"/>
<path d="M2272 1361 c-22 -19 -137 -61 -167 -61 -11 0 -15 -7 -13 -22 5 -36
62 -46 147 -25 38 9 84 14 102 11 29 -5 39 -1 69 30 l34 36 -21 22 c-31 31
-119 36 -151 9z"/>
<path d="M1833 1050 c-12 -5 -50 -12 -85 -16 -65 -7 -112 -29 -102 -46 4 -7
38 -8 93 -3 129 11 222 7 329 -14 53 -11 132 -22 176 -25 50 -4 99 -15 135
-30 68 -30 112 -38 131 -25 12 8 9 15 -20 40 -62 54 -180 93 -234 78 -40 -12
-141 -12 -164 0 -31 16 -86 30 -132 35 -25 3 -58 7 -75 10 -16 3 -40 1 -52 -4z"/>
</g>
</svg>
